<?xml version="1.0" encoding="utf-8"?>
<svg version="1.1" x="0px" y="0px" viewBox="-5 -5 50 62.5" enable-background="new -5 -5 50 50" xmlns="http://www.w3.org/2000/svg">
  <path d="M6.336,24.798c-1.03,0-1.868,0.838-1.868,1.868s0.838,1.868,1.868,1.868s1.868-0.838,1.868-1.868S7.367,24.798,6.336,24.798  z M6.336,27.734c-0.589,0-1.068-0.479-1.068-1.067s0.479-1.068,1.068-1.068s1.068,0.479,1.068,1.068S6.925,27.734,6.336,27.734z" style="fill: rgb(219, 45, 45);"/>
  <path d="M27.632,28.535c1.03,0,1.868-0.838,1.868-1.868s-0.838-1.868-1.868-1.868s-1.869,0.838-1.869,1.868  S26.602,28.535,27.632,28.535z M27.632,25.598c0.589,0,1.067,0.479,1.067,1.068s-0.479,1.067-1.067,1.067s-1.068-0.479-1.068-1.067  S27.043,25.598,27.632,25.598z" style="fill: rgb(219, 45, 45);"/>
  <path d="M41.848,25.106l-3.624-1.996l-2.811-5.42c-0.085-0.163-0.265-0.247-0.448-0.205l-1.2,0.287  c-0.786,0.267-1.432,0.779-1.903,1.447c0.001-0.001,0.001-0.003,0.002-0.004l-1.288-1.005c-0.03-0.023-0.063-0.042-0.098-0.056  l-8.847-3.531c-0.563-0.223-1.289,0.21-1.6,0.967l-0.081,0.194c-0.183,0.446-0.199,0.912-0.045,1.277  c0.106,0.251,0.284,0.433,0.516,0.525l1.164,0.465v5.914h-2.1c-0.178,0-0.334,0.117-0.384,0.287l-0.591,2.014h-3.288l0.124-0.751  h2.22c0.221,0,0.4-0.179,0.4-0.4s-0.179-0.4-0.4-0.4H15.48l0.347-2.103h4.409c0.221,0,0.4-0.179,0.4-0.4v-2.256  c0-0.061-0.016-0.118-0.041-0.17c-0.002-0.004-0.001-0.008-0.003-0.012l-4.374-8.577c-0.068-0.134-0.206-0.218-0.356-0.218H8.136  v-1.13h10.35c0.221,0,0.4-0.179,0.4-0.4s-0.179-0.4-0.4-0.4H7.736c-0.221,0-0.4,0.179-0.4,0.4v1.93v0.57v6.029H4.281v-3.385  c0-0.656-0.533-1.189-1.189-1.189c-0.221,0-0.4,0.179-0.4,0.4s0.179,0.4,0.4,0.4c0.214,0,0.389,0.175,0.389,0.389v3.385H3.209  c-0.092,0-0.182,0.032-0.253,0.09l-3.056,2.501c-0.105,0.086-0.16,0.221-0.144,0.356l0.708,5.969  c0.026,0.219,0.228,0.374,0.444,0.351c0.22-0.026,0.376-0.226,0.35-0.444l-0.682-5.751l2.776-2.272h4.385c0.221,0,0.4-0.179,0.4-0.4  v-6.429v-0.17h7.481l3.966,7.777h-8.962V13.49c0-0.221-0.179-0.4-0.4-0.4s-0.4,0.179-0.4,0.4v6.866h10.015v1.457h-4.349  c-0.196,0-0.363,0.142-0.395,0.335l-0.863,5.224H10.55c0.038-0.23,0.071-0.463,0.071-0.704c0-2.363-1.922-4.285-4.285-4.285  s-4.285,1.922-4.285,4.285c0,1.438,0.718,2.707,1.808,3.484h-5.515c-0.221,0-0.4,0.179-0.4,0.4s0.179,0.4,0.4,0.4h7.819  c0.02,0,0.038-0.009,0.057-0.012c0.039,0.001,0.075,0.012,0.115,0.012c1.831,0,3.386-1.161,3.998-2.78h4.236  c0.196,0,0.363-0.142,0.395-0.335l0.127-0.77h3.185l-0.174,0.592c-0.036,0.12-0.012,0.251,0.063,0.352  c0.076,0.102,0.194,0.161,0.32,0.161h5.148c0.303,0.801,0.837,1.488,1.52,1.979h-5.182c-0.221,0-0.4,0.179-0.4,0.4  s0.179,0.4,0.4,0.4h7.819c0.056,0,0.108-0.011,0.156-0.032c2.213-0.165,3.969-1.999,3.969-4.253c0-2.363-1.923-4.285-4.285-4.285  c-0.371,0-0.725,0.062-1.068,0.151v-2.495l2.329,0.929l2.16,1.684v0c0.026,0.241,0.055,0.483,0.113,0.727  c0.533,2.24,2.358,3.867,4.341,3.867c0.168,0,0.336-0.012,0.542-0.043l5.699-1.356c0.161-0.038,0.281-0.171,0.304-0.335  S41.992,25.186,41.848,25.106z M6.336,30.151c-1.921,0-3.485-1.563-3.485-3.484s1.563-3.485,3.485-3.485s3.485,1.563,3.485,3.485  S8.258,30.151,6.336,30.151z M23.418,27.371h-4.397l0.765-2.606h2.201c0.221,0,0.4-0.179,0.4-0.4v-6.981  c0.981,0.116,3.376,0.6,3.376,2.565v2.833c0,0.015,0.007,0.028,0.009,0.043c-1.429,0.695-2.425,2.149-2.425,3.842  C23.347,26.908,23.38,27.14,23.418,27.371z M27.632,23.181c1.922,0,3.484,1.563,3.484,3.485s-1.563,3.484-3.484,3.484  s-3.484-1.563-3.484-3.484S25.71,23.181,27.632,23.181z M31.028,21.618l-1.688-1.317c-0.03-0.023-0.063-0.042-0.098-0.056  l-2.794-1.115c-0.556-1.934-3.053-2.542-4.451-2.581c-0.071,0.009-0.212,0.038-0.29,0.113c-0.077,0.075-0.121,0.179-0.121,0.287  v0.241l-0.867-0.346c-0.038-0.015-0.063-0.065-0.076-0.094c-0.052-0.123-0.07-0.371,0.048-0.66l0.081-0.194  c0.147-0.359,0.396-0.529,0.556-0.529c0.003,0,0.005,0,0.008,0l8.794,3.51l1.332,1.038C31.222,20.432,31.076,21.01,31.028,21.618z   M35.9,26.417c-0.131,0.019-0.263,0.028-0.394,0.028c-1.616-0.001-3.114-1.368-3.563-3.253c-0.488-2.052,0.425-4.1,2.044-4.652  l0.86-0.205l2.723,5.251c0.037,0.069,0.093,0.128,0.162,0.166l2.823,1.555L35.9,26.417z" style="fill: rgb(219, 45, 45);"/>
  <path d="M3.565,20.405h4.391c0.221,0,0.4-0.179,0.4-0.4s-0.179-0.4-0.4-0.4H3.565c-0.221,0-0.4,0.179-0.4,0.4  S3.344,20.405,3.565,20.405z" style="fill: rgb(219, 45, 45);"/>
  <path d="M3.565,21.89h4.391c0.221,0,0.4-0.179,0.4-0.4s-0.179-0.4-0.4-0.4H3.565c-0.221,0-0.4,0.179-0.4,0.4  S3.344,21.89,3.565,21.89z" style="fill: rgb(219, 45, 45);"/>
  <path d="M23.747,19.175c-0.221,0-0.4,0.179-0.4,0.4v3.801c0,0.221,0.18,0.4,0.4,0.4s0.4-0.179,0.4-0.4v-3.801  C24.148,19.354,23.968,19.175,23.747,19.175z" style="fill: rgb(219, 45, 45);"/>
  <path d="M11.313,16.891c-0.132,0.177-0.095,0.428,0.082,0.56l2.064,1.538c0.072,0.053,0.155,0.079,0.238,0.079  c0.122,0,0.243-0.056,0.321-0.161c0.132-0.177,0.095-0.428-0.082-0.56l-2.064-1.538C11.695,16.678,11.444,16.714,11.313,16.891z" style="fill: rgb(219, 45, 45);"/>
  <path d="M12.349,14.94c-0.135,0.175-0.103,0.426,0.072,0.561l4.502,3.482c0.073,0.056,0.159,0.083,0.244,0.083  c0.12,0,0.238-0.053,0.317-0.155c0.135-0.175,0.103-0.426-0.072-0.561l-4.502-3.482C12.736,14.734,12.484,14.766,12.349,14.94z" style="fill: rgb(219, 45, 45);"/>
  <path d="M15.762,15.178c0.122,0,0.243-0.056,0.321-0.161c0.132-0.177,0.095-0.428-0.082-0.56l-2.065-1.537  c-0.177-0.132-0.427-0.096-0.56,0.082c-0.132,0.177-0.095,0.428,0.082,0.56l2.065,1.537C15.596,15.152,15.679,15.178,15.762,15.178z  " style="fill: rgb(219, 45, 45);"/>
</svg>